<?xml version="1.0" encoding="UTF-8" standalone="no"?>
<!-- Created with Inkscape (http://www.inkscape.org/) -->

<svg
   xmlns:dc="http://purl.org/dc/elements/1.1/"
   xmlns:cc="http://creativecommons.org/ns#"
   xmlns:rdf="http://www.w3.org/1999/02/22-rdf-syntax-ns#"
   xmlns:svg="http://www.w3.org/2000/svg"
   xmlns="http://www.w3.org/2000/svg"
   xmlns:sodipodi="http://sodipodi.sourceforge.net/DTD/sodipodi-0.dtd"
   xmlns:inkscape="http://www.inkscape.org/namespaces/inkscape"
   width="744.09448819"
   height="1052.3622047"
   id="svg2"
   version="1.1"
   inkscape:version="0.48.4 r9939"
   sodipodi:docname="verdino_logo.svg">
  <defs
     id="defs4" />
  <sodipodi:namedview
     id="base"
     pagecolor="#ffffff"
     bordercolor="#666666"
     borderopacity="1.0"
     inkscape:pageopacity="0.0"
     inkscape:pageshadow="2"
     inkscape:zoom="0.7"
     inkscape:cx="109.94769"
     inkscape:cy="428.54024"
     inkscape:document-units="px"
     inkscape:current-layer="layer1"
     showgrid="false"
     inkscape:window-width="1280"
     inkscape:window-height="969"
     inkscape:window-x="1278"
     inkscape:window-y="-3"
     inkscape:window-maximized="1" />
  <metadata
     id="metadata7">
    <rdf:RDF>
      <cc:Work
         rdf:about="">
        <dc:format>image/svg+xml</dc:format>
        <dc:type
           rdf:resource="http://purl.org/dc/dcmitype/StillImage" />
        <dc:title></dc:title>
      </cc:Work>
    </rdf:RDF>
  </metadata>
  <g
     inkscape:label="Layer 1"
     inkscape:groupmode="layer"
     id="layer1">
    <path
       style="fill:#ffcc00"
       d="M 144.4375,199.6875 C 111.33697,200.86794 81.411073,219.59709 47.96875,219 c -41.25085,4.33554 -79.27769,25.62823 -108.75,54.1875 -21.041467,22.84918 -34.718211,54.04721 -62.78125,69.9375 -26.78929,31.41662 -61.17218,56.82728 -100.4375,70.125 -33.6048,17.5469 -53.7091,54.88375 -90.96875,66.46875 -22.46853,7.31361 -48.91951,9.2606 -66.09375,27.28125 -6.94564,12.09856 -16.17088,24.76103 -30.5625,27.96875 -24.41599,6.37539 -49.08549,-5.53304 -68.51472,-19.53063 -11.51061,-8.1695 -25.77735,-10.48648 -39.51653,-12.03187 -11.43887,-0.92436 -23.36878,1.78647 -31.8673,9.70491 -8.94725,4.40483 -18.19627,8.94584 -24.41395,17.20134 -13.72494,16.24685 -19.78496,41.1596 -9.625,60.75 5.402,10.7258 18.90757,14.21986 23.96875,25.25 10.18782,18.99323 4.14379,41.12464 0.41486,61.01512 -2.3365,12.83455 -2.41602,26.81355 3.71014,38.54738 -0.52727,7.05694 -7.95606,11.90289 -6.125,19.4375 2.2927,12.32422 16.20799,16.63415 26.1875,21.15625 9.03429,3.72903 18.15524,7.76145 25.46875,14.4375 -8.23749,11.48007 -18.52222,24.66846 -16.34375,39.59375 4.29211,6.3142 12.73574,1.68994 18.46875,0.40625 20.63375,-3.61362 41.39903,-6.06436 61.84375,-10.53125 4.65416,-1.209 9.24969,-1.22743 13.3125,1.46875 11.47512,4.64627 26.17733,1.67444 33.0625,-9.15625 8.8781,-10.80437 13.68785,-24.14673 21.34375,-35.78125 17.66801,-4.68904 33.81698,6.65638 48.3125,14.875 11.5163,7.35174 27.3024,12.11618 39.8125,4.53125 18.01477,-2.43617 32.36954,11.67495 43.14749,23.98438 9.8394,10.84379 22.17708,22.55661 37.69626,22.39062 3.23195,4.38864 -0.60269,11.03986 3.1875,14.8125 8.07659,0.67619 15.80285,-2.80601 23.90625,-2.8125 28.48857,-5.28573 52.71151,-22.50067 79.0625,-33.5625 18.985281,-29.56387 62.822493,-35.48811 91.6875,-17.34375 19.5020176,11.88135 36.913697,27.15642 58.53125,35.09375 12.154926,4.70575 26.03151,8.32831 38.84375,5.0625 21.34623,-14.9402 24.63744,-46.64314 48.84375,-58.625 9.51581,-5.14416 21.06904,-1.63104 30.625,-6.53125 28.83122,-8.95407 60.22265,1.45229 88.84375,-8.0625 6.58974,1.54261 17.32144,-0.85742 16.625,-9.5 0.0826,-8.83507 -4.30805,-17.29361 -2.71875,-26.1875 17.45971,-10.81906 30.885,-32.94221 23.3125,-53.40625 -3.73836,-10.25066 -12.87356,-16.85196 -20.40625,-24.25 5.96523,0.73897 14.5006,5.05893 19.40625,-0.28125 0.74687,-5.40521 -3.8382,-10.56112 -6.625,-14.9375 -4.96705,-6.04099 -10.10632,-12.11947 -15.59375,-17.46875 -27.68495,-6.62345 -59.06331,-1.58536 -83.625,-18.4375 -12.50899,-7.07144 -17.13186,-24.51941 -32.28125,-27.4375 -12.53276,-4.16932 -27.76715,-2.83754 -38.15625,-11.875 -4.91257,-8.08705 3.02086,-16.49596 8.34375,-21.78125 0.98149,-2.89461 -0.68828,-6.62297 1.09375,-9.75 4.71675,-12.26167 17.54367,-18.86282 28.34375,-25.03125 2.02586,-1.64531 9.50748,-2.4522 4.375,-4.625 -9.89184,-7.75948 -24.03433,-2.22547 -31.6875,6.0625 -13.54782,12.7751 -20.14689,32.23778 -35.8125,42.78125 -10.482729,6.35362 -26.729142,3.75406 -31.78125,-8.34375 -6.324855,-12.89256 3.059682,-29.44784 16.84375,-32.125 6.024771,-1.12521 11.742529,-3.71927 15.025791,-9.10301 22.728779,-26.0227 24.767459,-65.33362 51.630459,-88.39699 28.03649,-23.87778 63.01633,-38.95806 88.7287,-65.66047 20.25048,-17.84489 43.59507,-35.33245 53.3338,-61.43328 4.19121,-15.42337 -2.58257,-33.79626 -17.59375,-40.375 -18.49934,-10.3404 -40.47734,-8.80119 -60.90625,-7.40625 -21.1841,-1.97207 -35.83791,-22.95219 -57.6875,-22.0625 z m 3.15625,6.46875 c 25.99078,15.20233 56.23778,20.69761 85.3125,25.96875 5.73207,1.16813 13.05031,-0.38344 17.375,4.34375 2.5466,4.95463 -3.43151,9.72731 -1.375,14.9375 0.53422,4.09581 6.56934,5.39226 4.5,10.03125 -2.18474,4.99487 -7.74155,7.48879 -12.1875,10.0625 -5.75122,-0.81216 -0.7429,-7.47771 0.5625,-10.34375 1.07375,-2.77724 -2.11266,-4.83475 -4.37729,-2.87701 -7.23618,3.25547 -15.37992,4.59672 -22.9777,1.80295 -20.55992,-4.36027 -40.26933,-12.41305 -61.14501,-14.45719 -19.61753,-13.12715 -43.89556,-4.13368 -65.75,-6.34375 -3.666824,-1.66849 -3.478522,1.46476 -4.3125,4.3125 -3.310852,10.19661 -13.647266,15.85023 -23.75,17.34375 C 48.218546,263.70275 34.630835,266.9355 29.3125,278.5 18.253194,275.91142 7.2146638,266.25276 -4.5,270.875 c -5.90148,2.82295 -8.472229,9.51317 -11.09375,15.09375 -14.753862,-7.53048 -31.21589,2.68414 -40.5625,14.21875 -8.13216,8.68255 -12.305684,20.36319 -20.3125,29.25 -2.906915,-24.41512 12.076337,-48.68251 33.5625,-59.40625 5.347185,-2.28007 11.220844,-0.31295 16.3125,0.8125 7.584489,-1.3422 17.5784303,-6.26693 17.65625,-15.09375 -3.813705,-3.01395 -9.409034,0.88988 -13.864918,-0.80825 -3.025773,-0.41117 3.459288,-4.23813 5.052418,-6.12925 8.9452304,-7.67064 20.5244601,-10.29609 31.433346,-13.82773 C 47.858353,221.77049 86.05497,223.72058 119.96875,209.75 c 8.89432,-1.41179 18.69975,0.91619 26.625,-4.1875 l 0.85985,0.51054 0.14015,0.0832 z M 62.3125,238.6875 c -2.27007,1.19993 -5.257207,7.00703 -0.3125,5.84375 4.556248,-0.072 5.027379,-4.89121 0.59375,-6.125 l -0.28125,0.28125 z m -3,5.375 c -0.103643,0.0325 0.04293,0.0577 0,0 z m 177.59375,-2.15625 c -1.81183,1.42899 -2.84326,7.75666 1.15625,5.53125 2.52028,-1.93314 1.28604,-4.39718 -1.15625,-5.53125 z m -193.3125,0.15625 c -4.259373,2.45432 -11.07496,3.79244 -13.1875,8.21875 6.015114,0.50101 13.331545,-0.16456 18.125,-4.15625 1.629682,-2.06321 -3.400101,-4.23064 -4.9375,-4.0625 z m 106.59375,8.78125 c 5.97875,0.85139 4.63757,8.9337 9.15625,11.8125 5.15796,5.73249 13.48548,6.14674 20.28125,7.46875 4.55392,3.91055 -1.08376,9.29349 -5.40625,9.875 -14.89916,4.66963 -32.90582,-11.10892 -27.75,-26.5 0.6676,-1.44802 2.09008,-2.59194 3.71875,-2.65625 z m -19.03125,10.9375 c 5.57818,1.07874 10.16421,9.21569 4.5625,13.0625 -7.94168,4.02174 -17.45145,2.22636 -24.75,-2.4375 6.51931,-2.44399 16.95561,-2.86141 18.125,-11.65625 0.6875,0.34375 1.375,0.6875 2.0625,1.03125 z m -66.09375,8.3125 c 3.946162,0.81456 9.819749,5.80598 5.71875,9.78125 -4.617062,4.05636 -14.908413,-2.15186 -9.75,-7.8125 1.081164,-1.0039 2.450572,-2.16318 4.03125,-1.96875 z m 164.21875,3.71875 c 4.51584,-0.38387 5.19886,5.49245 1.84375,7.59375 -12.9452,9.43944 -31.77309,15.37683 -46.48514,6.37449 -6.41731,-2.8512 8.20425,-3.28074 10.90192,-5.09251 6.50691,-1.72941 13.01381,-3.45882 19.52072,-5.18823 -5.11352,-1.24251 5.09394,-5.26805 7.09375,-1.90625 2.37646,-0.52516 4.73676,-1.45175 7.125,-1.78125 z m -5.21875,2.75 c 4.87327,4.55308 5.12046,-4.40365 0,0 z m -205.625,5.59375 c 3.706654,3.54878 5.435504,10.84705 0.125,13.84375 -10.3096706,2.98818 -21.1019685,-1.53271 -29.8125,-6.96875 7.6259838,-4.48218 17.1847393,-0.64169 24.625,-5.09375 2.259288,-1.27062 3.184863,-6.93867 5.0625,-1.78125 z m 13.28125,16.9375 c 6.198369,0.002 15.678916,4.12199 13.5,11.78125 -3.643458,9.54715 -20.793029,10.61636 -23.4375,-0.21875 1.284799,-4.2463 4.371969,-11.1243 9.9375,-11.5625 z m 127.5,4.375 c 2.57989,9.85043 -4.28171,-0.24391 -3.90299,6.85259 -3.49478,-4.67958 -3.45502,3.04277 -6.58244,-0.76496 -0.89655,5.08734 -3.77167,2.38662 -5.44292,4.59456 -0.29622,1.72269 -3.31737,1.3763 -2.94665,3.50531 -1.61708,-0.49482 -2.95305,2.91447 -1.78125,1.9375 0.53139,1.07305 -3.41876,3.05715 -6,3.28125 1.34735,1.77936 4.33303,9.86235 1.321,6.87433 -4.75245,-0.77865 -5.6676,-2.2536 -7.78975,0.0319 -4.1732,-2.23779 -0.39667,-14.60753 1.59375,-7.28125 4.92683,-1.24623 -0.6599,-4.3911 -0.0937,-5.75 1.14009,-1.69932 2.7458,-2.3474 4.375,-3.21875 -1.03916,-5.66023 2.35503,-2.89446 3.23035,-5.70413 4.98611,2.71994 1.26449,-8.59416 6.37801,-1.71438 4.01285,-0.15411 1.51449,-7.74429 6.48539,-0.0502 -0.0238,-7.25786 4.41376,0.87761 4.87819,-4.65449 4.86338,7.85081 0.7858,-6.76281 6.27806,2.06074 z m -28.875,12.6875 c 1.12372,0.26855 -0.1901,-0.33467 0,0 z m -22.75,6.75 c 0.7182,6.89891 -3.254,4.9401 -4.51742,5.89427 -2.64551,-2.73229 -4.636275,2.79078 -7.057676,-0.70196 -0.229833,5.37295 -4.914648,-1.35662 -4.737404,4.24519 -2.960267,-2.67477 0.61469,2.5923 -2.21875,1.1875 -0.693685,0.38894 0.141857,1.97855 -0.84375,2.53125 -0.684199,2.46637 2.874864,1.69666 3.784853,5.21506 1.15768,6.78683 -5.093807,-4.33128 -4.534853,-0.49631 3.07011,4.55926 -6.477122,7.63135 -6.0625,1.96875 -9.648003,0.44871 -0.872462,-2.0236 -2.440207,-4.36222 -3.236486,-0.98802 -0.104634,-4.14691 -0.0445,-5.87281 0.487453,-2.76968 1.065308,-2.95294 -0.04285,-7.3483 4.431188,4.06686 4.09281,-1.6172 6.527559,-0.94792 1.922198,-3.85819 -0.07337,-5.22773 5.6875,-0.6875 1.313133,-8.78994 3.830837,2.07977 5.511307,-4.26843 1.839149,1.91068 3.727993,2.18712 7.604393,1.40944 0.24458,-7.55994 1.85384,1.15022 3.3843,2.23399 z m 9.6875,0.6875 c 0.17051,6.38035 -4.40473,6.0921 -4.03125,-0.125 2.40715,-5.02762 2.79805,-6.97304 4.03125,0.125 z m -96.125,1.5 c 7.776187,0.53521 2.986666,5.73099 -2.186773,3.25455 -5.681118,-1.31053 0.506063,-2.18755 2.186773,-3.25455 z M 91.25,333.1875 c -0.837631,0.5398 -1.842691,-1.60132 0,0 z m -3.875,1.65625 c 0.697152,1.10909 0.798154,-1.14351 0,0 z m 0.125,0.875 c 0.520685,0.7886 0.492557,-0.8509 0,0 z m 0.15625,0.65625 c 0.160705,0.29504 0.257034,-0.32794 0,0 z m -0.40625,1 c 0.735716,0.88737 0.678559,-1.28401 0,0 z m -73.09375,3.59375 c 4.576578,-1.22721 4.386001,6.57439 -0.367034,6.15722 -6.6587336,2.73586 -3.514198,-0.64627 -2.601716,-5.28222 0.833962,-0.49191 1.998028,-1.73145 2.96875,-0.875 z m 103.125,3.78125 c 3.73951,-2.33873 5.42367,8.25474 1.34375,5.375 -1.22628,4.2831 -4.63268,1.22382 -6.34375,3.625 -1.11175,2.17388 -5.00794,-0.65433 -4.625,3.5625 0.46366,2.62374 -4.64265,-0.73192 -3.8125,2.5 -2.15884,-1.74691 -2.04432,1.543 -2,2.4375 -0.49546,1.58116 1.39265,0.31139 0.5,1.46875 1.60461,0.5351 2.11587,3.519 3.21875,1.28125 1.80477,1.14118 2.91517,-3.09488 5.02629,-1.25076 1.07264,-3.72621 5.34644,6.3671 2.60479,8.89081 -2.47467,1.35912 -4.17599,0.47336 -6.47584,1.26895 -2.17679,-1.16801 -4.47429,-2.26924 -6.87399,1.5285 -0.223309,-5.57991 -5.094087,0.67543 -4.1875,-4.25 -2.784495,0.19631 -1.678539,-1.59624 -2.03125,-4.90625 -3.979524,-2.58764 2.47023,-4.16458 -0.559795,-7.53796 1.191563,-2.18288 2.50646,-2.82973 4.091045,-5.96204 0.688137,-2.2903 5.96035,1.0606 3.97083,-5.07329 2.46025,1.88475 6.5491,0.68677 6.52917,-2.55171 1.64285,-0.4704 4.50036,-0.75818 7.25,-0.46875 0.13694,-3.82598 0.57795,-1.60002 2.375,0.0625 z m -200.96875,6.21875 c 4.456643,1.51202 4.907464,9.88931 -0.46875,10.78125 -4.952964,1.24579 -6.50525,-5.5541 -3.34375,-8.46875 0.837162,-1.25658 2.17845,-2.55388 3.8125,-2.3125 z m -34.46875,1 c 4.73566,-0.37227 11.8579,5.88249 7.09375,10.21875 -5.25786,3.39525 -14.16598,-6.0918 -7.78125,-10.21875 l 0.6875,0 z m 94.96875,4.1875 c 1.447646,0.81236 2.63286,1.12493 3.3125,2.28125 1.171373,-0.75443 1.423022,3.37216 3.5,1.3125 1.12094,-0.25339 2.192013,0.53417 3.46875,-0.0625 1.2007,0.54607 0.533434,-3.21054 2.5625,-1.3125 -0.778373,-2.77968 1.351231,-1.48959 3.625,-3.03125 2.871027,0.28399 7.950215,4.16279 6.78125,5.875 -0.36371231,2.46069 -2.9527167,2.85966 -3.0661039,5.6297 -2.670779,-0.3964 -3.0066012,1.94357 -5.7627812,1.54205 -2.5676709,0.0691 -3.5045609,4.69379 -5.7648649,0.20325 0.238788,-0.95092 -1.998677,3.09366 -1.75,4.875 -0.06446,2.52457 11.3621026,-0.69552 5.375,2.25 -1.326974,1.45979 -1.094161,3.90969 -0.756757,5.33989 -2.148826,2.02596 2.4387136,5.25575 -2.317708,6.35686 -3.996852,1.88035 -11.267814,-2.72653 -7.759965,-3.76996 0.0556,-0.96742 -2.998126,-3.50953 -0.10307,-2.45804 1.423071,-0.24473 1.254599,-1.55428 0.53125,-1.875 -0.356766,-0.99653 -0.950346,-4.10786 -2.050722,-2.59129 -1.353209,-0.68987 -2.218407,1.15869 -3.636778,0.49754 -0.281692,-2.76355 -1.951022,0.25079 -1.5,0.25 0.978485,2.49998 -7.243703,-1.56241 -1.651796,3.61183 -5.558429,-2.14961 2.937085,5.58035 -6.285704,2.63817 -7.073614,-3.56277 1.434462,-3.46237 -1.75,-4.5625 -1.279347,-1.43048 -5.700753,-5.59102 -2.0625,-4.71875 -4.020359,-3.45962 2.672961,-2.1556 0.417486,-5.61676 1.167755,-1.15478 -1.366141,-3.62109 5.363764,-3.78949 3.337019,1.08884 5.394183,4.35168 5.5625,-0.71875 3.41633,2.78686 -1.742689,5.42317 1.8125,5.4375 2.909677,0.7494 0.215966,-3.95049 1.9375,-1.71875 2.84915,-0.59764 -1.868631,-1.501 -1.135504,-3.77515 0.268128,-2.78991 -3.941391,0.702 -4.333246,-0.28735 1.110288,-2.71486 -1.880496,-4.64142 3.4375,-8.09375 0.794669,0.33198 5.77626,-1.69913 4,0.28125 z m -9.96875,9.09375 c -4.651118,0.63547 -3.114338,3.96489 -2.8125,1.46875 1.259443,-0.95302 3.776077,1.77653 2.8125,-1.46875 z M 101.5,362.3125 c 0.20729,-0.065 -0.0859,-0.11532 0,0 z m -128.40625,2.90625 c -1.385252,0.79452 -0.04708,-1.43233 0,0 z m 0.46875,0.75 c -0.775359,0.86828 -0.195991,-1.25564 0,0 z m 0.5,0.8125 c -0.997474,0.9943 -0.199906,-1.62667 0,0 z m -0.96875,0.3125 c -0.476039,0.43286 -0.05249,-0.70057 0,0 z m -2.25,0.0312 c 0.12694,0.63881 0.318745,-0.44754 0,0 z m -0.59375,0.21875 c 0.09357,0.152 0.227911,-0.26614 0,0 z m -0.8125,0.34375 c 0.394685,1.56462 1.429784,-1.5405 0,0 z m 3.65625,0.1875 c -1.025897,1.41454 -0.245213,-1.62785 0,0 z m 5.8125,-0.28125 c 0.209315,1.96071 0.439644,-0.74309 0,0 z m -5.4375,0.0625 c -0.153347,0.16581 0.0059,-0.29339 0,0 z m -11.625,0.3125 c 2.058974,1.43902 0.865558,-1.13581 0,0 z m 20.125,0.9375 c 2.092877,-0.30048 0.610644,-1.84332 0,0 z M -30.75,368.375 c 0.876806,1.77692 1.617534,-1.25676 0,0 z m 10.21875,0.5625 c 1.351227,0.92485 1.046608,-2.26099 0,0 z M -26,368.40625 c -0.388557,0.40362 -0.135728,-0.72003 0,0 z m -0.53125,0.1875 c -0.707104,0.64253 -0.05665,-1.17606 0,0 z m -0.90625,0.28125 c -0.314309,0.37426 -0.191179,-0.402 0,0 z m -1.6875,0.375 c 0.0503,0.12143 0.0503,-0.12143 0,0 z m -0.1875,0.21875 c 0.221947,0.50803 0.372016,-0.41923 0,0 z m 3.8125,0.71875 c 0.0503,0.12143 0.0503,-0.12143 0,0 z m -1.0625,0.28125 c 0.03723,0.12113 0.119808,-0.14551 0,0 z m 11.40625,1.96875 c -0.276487,1.86159 -1.153828,-2.15929 0,0 z M -143,378.28125 c 2.878,4.88946 9.84542,12.50659 3.9375,17.78125 -4.35458,1.58819 -8.4964,-4.61965 -8.40625,-9 -0.39888,-4.41689 1.02332,-8.69124 1.875,-12.96875 0.86458,1.39583 1.72917,2.79167 2.59375,4.1875 z m 115.875,-0.375 c -0.365656,-0.13819 0.400482,-0.9796 0,0 z m 127.03125,5.28125 c 0.99797,-0.59151 3.65203,0.46402 5.4375,3.71875 0.32285,3.00889 -0.71924,6.02467 -0.875,9.03125 -1.66639,-3.8363 -2.57363,-2.65606 -4.09375,-2.40625 -2.168243,-0.0712 -3.868068,0.61507 -5.785681,1.20354 -6.372005,-3.09647 -2.201981,-5.69854 -2.527224,-8.83232 1.366803,-0.62007 2.016544,-2.15964 4.322761,-2.11584 1.593039,-0.32798 1.307986,-1.58071 3.409606,-0.73079 l 0.111788,0.13166 z M -41.5,385.4375 c 6.709196,0.97058 4.639655,5.2446 -1.125,3.90625 -5.155365,-2.89483 -4.024795,-2.92479 1.125,-3.90625 z m 22.9375,4.09375 c 7.990924,1.2343 2.645741,6.3034 -2.166875,3.20182 -5.594203,-3.34088 -0.958585,-2.42023 2.166875,-3.20182 z m 71.90625,6.75 c 1.191463,1.60261 4.610875,2.08729 6.620142,1.78659 -1.887513,3.45161 3.844646,1.18839 0.973608,3.11966 -4.760812,2.53324 2.783404,4.93256 -0.394427,6.19721 1.44778,0.85461 4.349152,3.77845 3.863177,3.14654 -0.199343,3.67372 0.913203,5.13889 -3.567056,5.3434 -3.313235,-2.33112 -7.527311,-2.25436 -11.495444,-3.68715 3.895659,-0.79307 2.748253,-1.71284 5.15625,-3.1875 -0.04996,-0.55201 -2.148688,-1.32225 -2.59375,-1.71875 -0.904257,0.93772 -0.614221,-0.15828 -1.0625,-0.65625 -4.810099,1.41914 -8.000047,-4.70168 -10.3125,-8.3125 4.449875,3.14754 6.387623,-1.0655 8.983837,-0.34398 0.92685,1.55328 4.038936,-4.02912 3.828663,-1.68727 z M 54.75,409 c 0.05623,0.0812 0.110985,-0.12832 0,0 z m 20.1875,-8.40625 c 2.634934,3.13887 2.465416,8.86285 -2.09375,4 -2.06601,-2.7645 -4.375809,-10.32674 0.497651,-5.11522 l 0.819726,0.57275 0.776373,0.54247 z m -5.25,3.3125 c 3.238804,4.51976 1.436612,7.74608 -1.53125,6.375 0.114835,5.83696 -1.924204,-3.82168 -4.59375,-0.90625 -2.019085,-5.25295 5.165806,-2.31528 0.59375,-6.78125 3.121285,2.26707 0.04323,-3.11831 5.53125,1.3125 z m -26.375,1.28125 c 3.278392,5.69746 -0.207061,7.32999 -2.304042,6.92215 -1.04644,-3.24768 -4.428461,1.04361 -6.039708,-2.48465 -0.994375,-2.05419 1.054264,-5.21174 3.375,-3.75 0.418054,-4.46383 -0.01224,-3.86869 4.96875,-0.6875 z m -220.5,-2.15625 c 6.75309,-0.12278 6.98064,10.48711 0.71875,11.53125 -4.61347,1.08726 -7.41558,-4.32236 -4.90625,-7.96875 0.76245,-1.745 2.18459,-3.43149 4.1875,-3.5625 z m 207.90625,5.03125 c 0.711068,7.28332 -3.232182,3.67405 -4.204207,5.96607 -0.854785,-0.71657 -2.957399,1.3562 -3.577043,1.65893 0.266933,0.71736 -0.874287,1.31186 0.25,1.5625 -0.742804,2.23031 1.792055,3.33197 1.109563,3.67546 2.842052,-0.48781 4.370429,1.0623 2.648671,6.64561 -3.920556,4.26772 -6.661905,4.17597 -6.414484,0.71018 -1.808734,-1.56372 -3.345842,-3.12165 -5.367387,-4.94268 -5.8549664,1.5485 0.159193,-3.78908 -3.613006,-3.98318 5.294366,-2.99397 -2.8478323,-5.90831 3.011643,-6.82414 -5.5154689,-8.05196 3.510203,-0.34686 1.277774,-7.17633 2.746713,4.51265 4.838742,-0.33677 6.112315,-0.39332 2.786977,2.08573 4.770247,-0.43521 7.108318,0.55762 0.552614,0.84776 1.105229,1.69552 1.657843,2.54328 z m 32.875,-3.09375 c -1.552955,2.40719 -2.202617,-2.52614 0,0 z m -88.6875,4.3125 c 2.581565,4.11028 2.859103,13.22955 -3.9375,12.71875 -6.563012,-2.01198 -4.499238,-14.03555 2.597224,-14.2028 1.183186,-0.89649 0.883225,1.00881 1.340276,1.48405 z m 77.71875,-1.375 c 0.62217,-0.0303 -0.141717,-0.56328 0,0 z m -1.65625,-0.0937 c -0.09757,0.0395 0.0603,-0.16719 0,0 z m 2.25,0.78125 c -0.588824,0.0514 0.41294,-0.51696 0,0 z m 1.5,0.25 c 0.242695,-0.0719 -0.312587,-0.31466 0,0 z m -3.71875,1.5 c -0.416707,0.1246 0.04126,-0.15198 0,0 z m 14.9375,0.59375 c -1.407455,0.0126 -2.464457,-1.17611 0,0 z m -226.84375,9.96875 c 5.6865,-0.81995 8.52954,8.96925 2.0625,9.6875 -4.20481,1.11956 -9.59703,-1.82437 -12.46875,-1.40625 1.98782,5.32299 -1.54017,11.76881 -7.53125,11.84375 -7.14781,0.47612 -17.15614,-2.51105 -18.28125,-10.65625 1.69261,-6.97245 10.98681,-6.58768 16.65625,-7.6875 2.04953,-2.97104 6.48922,-0.71075 7.65625,2.0625 4.09714,-0.90391 7.803,-3.11811 11.90625,-3.84375 z m -55.1875,16.03125 c 3.6147,1.34234 4.38838,6.3485 6.03125,9.625 2.18279,4.61439 0.30117,12.41496 -5.46875,12.28125 -8.1048,-2.94974 -6.18046,-13.48259 -2.90625,-19.4375 0.13028,-1.22285 1.00907,-2.50365 2.34375,-2.46875 z m 74.625,24.9375 c 5.1991,-1.28603 3.52995,5.59667 2.53125,8.8125 -2.27399,6.1843 -9.38901,9.4418 -15.71875,8.0625 2.20857,-6.63001 4.68176,-16.3149 13.1875,-16.875 z m -118.90625,1.96875 c 5.71272,1.64383 11.3908,6.02385 11.34375,12.53125 -7.15266,3.8439 -19.49937,-2.7e-4 -18.375,-9.5 -0.17276,-2.51688 3.62428,-1.55243 5.375,-3 0.53513,-0.11354 1.14236,-0.34782 1.65625,-0.0312 z m 71.84375,4 c 5.01104,0.10253 5.32645,9.23 -0.25,8.9375 -5.42108,0.45741 -5.87412,-7.51214 -0.9375,-8.65625 0.42179,-0.0217 0.74769,-0.39897 1.1875,-0.28125 z m 153,20.875 c 8.150514,2.66634 13.262449,10.86735 19.15625,16.71875 3.302469,4.3206 5.401391,9.37895 7.96875,14.15625 -11.242895,-6.28161 -27.081499,-11.24046 -30.28125,-25.4375 -0.546562,-1.95816 0.626881,-5.38111 3.15625,-5.4375 z M -318.8125,500.6875 c 16.4589,-0.49152 28.57169,13.95224 33.84375,28.09375 7.3623,16.31957 12.22707,37.51092 30.28125,44.90625 5.43822,0.37652 10.11311,-3.7561 15.65625,-3.53125 24.9491,-4.27349 50.86292,4.86291 75.375,-2.15625 6.30496,-6.2334 12.29597,-16.61025 22.75,-14.96875 9.24284,2.51088 14.59563,11.98028 24.06458,14.23522 5.78229,2.36448 -4.94097,2.31162 -7.75208,3.26478 -7.68919,1.48377 -14.02361,9.3162 -11.09318,17.16966 2.97145,15.82126 13.02662,32.46569 5.65568,48.51784 -3.79587,3.543 -2.08959,8.46123 -1.25,12.6875 0.74871,7.39037 -5.32528,15.48241 -13.3125,13.78125 -14.67593,0.0149 -30.63399,-8.13402 -44.34375,-0.0312 -5.22894,4.54249 -8.28789,11.38553 -14.53125,14.78125 -16.29258,16.41278 -10.12864,45.39405 7.28125,58.5 8.79136,7.00324 20.62138,9.08929 31.34363,6.64038 16.96966,0.52179 35.55556,2.02598 50.59387,-7.29663 7.54685,-4.5073 8.07579,-14.58198 3.65625,-21.4375 -2.7002,-5.26353 -7.35945,-9.64283 -6.46358,-16.05679 -3.34696,-42.93291 1.6722,-85.87147 3.36983,-128.75571 11.78145,6.61025 28.23109,11.64451 39.84375,2.0625 5.053105,-3.98572 7.318967,-13.35547 15.3125,-12.0625 C -30.76864,558.66831 -6.0077054,579.08574 22,573 c 7.963165,-3.50094 18.020989,-3.23959 24.4375,3.1875 17.104448,12.81834 19.549927,36.89328 35.3125,50.8125 2.856966,2.00891 10.456663,3.03587 10,-2.34375 0.697699,-11.56188 -7.194013,-22.05403 -5.03125,-33.84375 14.5147,2.30787 26.40866,11.83416 38.5625,19.5 7.40044,4.98556 15.31459,11.45171 24.21875,12.1875 1.72608,-4.33357 -1.49096,-9.48927 -3.6875,-13.25 -7.62654,-8.61244 -18.88929,-15.42966 -21.9375,-27.21875 -1.80352,-6.60582 6.44595,-8.84856 11.375,-7.15625 7.60707,0.2217 13.596,4.91797 18.21875,10.53125 14.34785,13.23957 35.1366,14.81543 53.74238,16.15124 12.98535,1.32098 26.86211,1.19645 38.72637,7.16126 8.90395,6.65038 14.34331,17.0753 18.78125,27.03125 9.29056,22.71154 5.11453,52.23348 -15.0625,67.71875 -3.87899,2.58743 -7.33639,6.46348 -5.4375,11.34375 1.20647,6.44969 6.13283,14.16649 2.0625,20.375 -6.668,6.19621 -16.3665,1.16343 -24.07365,4.18909 -30.05364,4.50619 -60.78317,4.62502 -90.61385,10.56091 -17.68007,-2.79663 -33.143404,10.55955 -40.166888,25.86879 -6.37631,11.63255 -11.551421,24.16726 -19.770612,34.72496 C 33.360168,799.29483 0.04037522,776.61303 -35.25,758.84375 c -24.11148,-5.30127 -46.68577,8.37252 -66.875,19.625 -19.3923,10.16263 -40.60241,17.05208 -59.8125,27.65625 -15.76918,7.39869 -36.53625,12.51226 -51.90625,1.5 -9.76663,-8.1012 -16.41864,-19.419 -26.05086,-27.83211 -9.53973,-9.36603 -22.76508,-18.60214 -36.82414,-15.13664 -5.40571,2.68693 -11.51775,4.36693 -17.34375,1.90625 -29.49736,-7.02067 -52.53781,-32.8573 -83.875,-33.15625 -13.12427,-0.82081 -19.94206,12.68781 -24.625,22.78125 -5.13169,11.68762 -15.17124,24.7832 -29.43339,23.22196 -8.70923,-1.52979 -17.45141,-1.05609 -25.69048,2.06171 -14.73031,3.9956 -29.7977,11.5927 -45.31363,8.84133 -4.83137,-2.11111 -5.09186,-9.00078 -0.92248,-11.83761 5.83208,-8.68431 12.52812,-20.159 7.51623,-30.53739 -6.96302,-7.62658 -18.56525,-1.15634 -26.78125,-6.25 -13.71032,-5.83294 -22.68747,-20.70925 -21.04663,-35.59362 -0.13966,-20.33373 9.63084,-39.09989 11.95288,-58.96888 -4.30253,-26.49868 -25.29928,-45.82656 -36.28125,-69.5 5.65119,-40.53855 52.448,-69.67113 91.1875,-55.4375 23.21203,9.94544 44.71738,28.15053 71.46875,26.84375 9.21754,-0.38652 17.68102,-4.64676 25.15625,-9.6875 5.21777,0.34412 1.39485,6.58946 -0.1351,8.8779 -9.70464,18.86421 -9.20252,43.75261 -26.52115,58.1846 -10.38072,22.82441 -1.47799,50.38875 -12.875,73.125 -2.52334,5.80784 -8.04385,9.62909 -13.96875,11.53125 -15.84052,-35.27778 -30.17683,-71.38465 -42.46875,-108.0625 -3.76663,-14.90459 -2.47782,-32.37111 -13,-44.65625 -8.97201,-5.50112 -22.08191,0.41039 -26.65625,9.1875 -3.88901,9.96974 5.28413,23.67438 16.34375,20.96875 5.43667,1.78053 1.57925,8.80782 2.78125,12.875 2.06037,33.67369 25.63388,60.50832 35.05773,91.96402 9.32245,17.81948 12.38352,38.55269 23.16102,55.56723 2.48412,4.80163 8.53426,8.38577 13.25,4.09375 9.99129,-8.24107 10.69758,-22.33961 16.0625,-33.40625 13.04102,-34.04507 26.63543,-68.09922 34.03125,-103.78125 6.25909,-18.39638 21.43807,-34.22553 21.21875,-54.4375 -1.01855,-5.49097 -7.9189,-9.73655 -12.65625,-5.6875 -2.76734,1.67409 -10.71888,4.39342 -10.03125,-1.40625 5.12624,-7.71408 12.95948,-13.72999 19.93712,-19.84345 10.79384,-9.05867 24.24729,-14.03751 38.40663,-13.7503 z m 208.40625,0.875 c 4.15949,-0.8836 7.13849,4.15988 3.8125,7.09375 -5.59823,5.36915 -12.83758,-1.55403 -18.96647,-2.001 -7.65802,-1.22273 4.27288,-2.51671 7.27729,-3.78474 2.59263,-0.68825 5.16696,-1.28062 7.87668,-1.30801 z M -3.3125,521.59375 c 12.43778,2.47571 23.725653,9.63916 32.03125,19.28125 -10.440061,-4.54879 -22.9070087,-1.27987 -32.5625,-7.6875 -3.9202923,-2.15901 -6.998405,-8.68267 -1.71875,-11.1875 0.6892675,-0.32611 1.5065621,-0.451 2.25,-0.40625 z M -220.25,523.3125 c 6.56955,-0.52362 6.52877,10.17381 0.21875,10.28125 -5.51774,0.58618 -7.25489,-6.82473 -2.71875,-9.40625 0.79777,-0.37636 1.58013,-0.85001 2.5,-0.875 z m -92.5,58.625 c -30.47581,3.16304 -57.77736,31.25481 -55.49665,62.71402 0.86362,10.54306 9.26003,22.11533 20.49665,21.66098 3.4906,-1.77879 8.00496,-0.52492 8.53125,3.71875 6.22192,11.68183 22.24744,15.24805 33.53125,9 13.62347,-5.62224 27.28042,-17.08809 29.375,-32.375 -2.83546,3.97068 -7.73726,9.51698 -12.96875,12.1875 -21.07908,12.79977 -52.51961,-5.26043 -51.53125,-30.09375 -0.85224,-6.78247 5.74709,-10.77422 11.75,-10.46875 15.5719,-1.85233 31.30351,3.00046 46.71875,0.0625 4.65127,-0.40278 9.39177,-3.35579 8.625,-8.6875 -1.18415,-11.42825 -9.66453,-21.76839 -21.09375,-24.28125 -5.8488,-1.56497 -11.81225,-3.65731 -17.9375,-3.4375 z m 245.625,11.65625 c -4.498149,1.507 -11.417106,3.23806 -12.53125,8.6875 4.890126,6.90622 14.753227,5.67173 22.1875,6.28125 3.34778,0.28218 9.899704,-1.66721 6.53125,-5.9375 -3.842691,-4.62843 -9.901628,-9.47482 -16.1875,-9.03125 z m -245.84375,0.6875 c 5.61748,0.95709 12.18097,4.47568 12.21875,10.96875 -12.25101,7.5334 -27.38897,5.92516 -40.90625,3.4375 5.7291,-9.78888 17.76586,-10.35576 27.125,-14.28125 0.50087,-0.11649 1.04689,-0.11506 1.5625,-0.125 z M -200.25,618.0625 c -12.36618,5.12048 -23.67944,17.74401 -38.25,14.0625 -6.56018,-0.73983 -11.74853,-9.7629 -18.5625,-4.90625 -10.73364,6.56967 -0.9239,20.4451 1.04531,29.1764 3.87865,10.13914 5.51727,22.72081 -1.85781,31.72985 -3.27937,5.40817 -6.19715,15.20231 0.5625,19 10.14843,4.61187 23.15344,-1.5803 28.5625,-10.625 3.80988,-6.79129 -0.0479,-14.33607 -4.96875,-19.40625 -5.5409,-6.81001 -10.42979,-18.40598 -2.78125,-25.59375 8.09213,-6.14679 19.3538,-3.98904 28.76937,-3.06504 4.4573,0.0679 9.89354,2.97666 13.63688,1.72129 5.9917,-9.49563 6.63371,-25.05228 -3.84375,-31.5625 -0.73103,-0.30666 -1.51436,-0.62579 -2.3125,-0.53125 z m 134,3.84375 c -13.475774,6.72056 -16.317108,23.54985 -15.334604,37.18709 0.648262,16.42019 1.816481,33.2701 -2.227896,49.28166 1.0932,9.93576 12.579638,20.63646 22.46875,14.65625 6.206406,-4.80619 3.267403,-14.01159 -1.0625,-19.0625 -5.853199,-11.32628 -0.02319,-24.27028 2.672067,-35.67361 3.636066,-12.4003 9.585161,-26.78109 3.327933,-39.23264 -2.25617,-3.40468 -5.763109,-6.46445 -9.84375,-7.15625 z M 123.5,625.6875 C 97.648102,629.42009 72.850764,647.46508 65.59375,673 c -2.525067,10.81753 2.03624,21.25465 7.09375,30.4375 7.431267,17.3091 27.83456,25.15674 45.84375,22.28125 16.3355,-1.50144 33.41851,-5.59615 46.91289,-15.25109 17.687,-18.38689 19.41619,-52.7445 -0.88164,-69.96766 -11.40148,-7.8655 -25.07731,-12.16686 -38.46875,-14.84375 -0.86374,-0.0347 -1.73264,-0.0738 -2.59375,0.0312 z m 0.34375,12.5625 c 19.31246,2.39612 36.70873,21.68727 32.03125,41.625 -4.12493,24.21566 -31.76231,41.83979 -55.3125,33.9375 -16.414717,-11.3709 -19.132923,-36.02906 -9.375,-52.65625 6.575792,-12.02486 18.85777,-21.42188 32.65625,-22.90625 z m -105.28125,8 c -16.9199874,8.02949 -37.190594,8.62515 -54.84375,6.46875 -2.474889,25.4454 -0.418829,51.11227 -1.0625,76.5625 7.189849,1.92303 18.839232,2.45982 21.21875,-6.5 4.827975,-16.27053 -5.036035,-33.69049 0.90625,-49.84375 4.734072,-6.51074 13.9811314,-5.8412 21.1875,-6.625 12.393955,-0.11396 24.552133,9.18899 25.5625,21.875 2.218986,13.15583 -6.438553,27.33279 0.875,39.59375 4.497557,5.80089 13.701082,4.09448 19.03125,0.9375 8.012974,-20.84221 -2.774,-42.68156 -7.78125,-62.875 -1.36632,-5.23724 0.130126,-13.58867 -6.90625,-14.9375 -5.84557,-2.17842 -12.373064,-2.49926 -18.1875,-4.65625 z m -172.375,27.25 c 12.6243,0.0858 26.28765,11.88077 22.46875,25.3125 -4.2518,19.36306 -22.61149,35.79489 -42.875,34.875 -12.64454,-1.41933 -21.71222,-13.40039 -22.53125,-25.5625 -1.51055,-12.8123 7.64163,-24.80434 19.59375,-28.625 7.37954,-3.29403 15.33277,-5.22444 23.34375,-6 z"
       id="path3104"
       inkscape:connector-curvature="0" />
  </g>
</svg>
